<svg width="278" height="370" viewBox="0 0 278 370" fill="none" xmlns="http://www.w3.org/2000/svg">
<path fill-rule="evenodd" clip-rule="evenodd" d="M215.492 117.328C226.745 113.144 238.225 109.284 249.933 106.576L253.95 105.652L278 128.923L277.87 132.28C274.211 228.136 212.598 317.036 136.073 370C79.6795 330.95 39.108 279.511 0 223.579L84.2 150.929V142.48L102.575 127.463L111.519 74.1751C100.396 80.1105 85.2895 81.2132 72.9473 83.5322V24.844C80.8503 23.352 89.6313 23.8548 95.3226 17.8384C112.641 -0.4865 125.975 0.973001 149.066 0L164.497 117.344L215.492 117.312V117.328Z" fill="#00AEFF"/>
<path d="M114.4 251.913C115.3 251.913 115.8 252.413 115.8 253.313V258.813C115.8 259.613 115.3 260.113 114.4 260.113H110.2V277.813C110.2 278.713 109.7 279.213 108.9 279.213H102.8C102 279.213 101.5 278.713 101.5 277.813V260.113H81.5C79.7 260.113 78.7 259.113 78.7 257.413V254.813C78.7 253.413 78.9 252.113 79.3 250.513L91.4 210.313C91.7 209.613 92.2 209.213 93 209.213H99.1C100 209.213 100.5 209.813 100.2 210.713L88 251.913H101.6L102.1 229.113C102.2 228.313 102.7 227.813 103.5 227.813H108.9C109.7 227.813 110.2 228.313 110.2 229.213V251.913H114.4ZM138.518 280.313C129.218 280.313 122.418 273.213 122.418 263.413V225.013C122.418 215.213 129.218 208.113 138.518 208.113C147.718 208.113 154.618 215.213 154.618 225.013V263.413C154.618 273.213 147.718 280.313 138.518 280.313ZM131.318 260.513L144.118 219.513C142.918 217.613 140.918 216.413 138.518 216.413C134.318 216.413 131.218 219.713 131.218 224.313V258.913C131.218 259.413 131.218 260.013 131.318 260.513ZM138.518 272.013C142.718 272.013 145.818 268.713 145.818 264.113V229.513C145.818 228.913 145.818 228.413 145.718 227.813L132.918 268.813C134.118 270.813 136.118 272.013 138.518 272.013ZM196.529 251.913C197.429 251.913 197.929 252.413 197.929 253.313V258.813C197.929 259.613 197.429 260.113 196.529 260.113H192.329V277.813C192.329 278.713 191.829 279.213 191.029 279.213H184.929C184.129 279.213 183.629 278.713 183.629 277.813V260.113H163.629C161.829 260.113 160.829 259.113 160.829 257.413V254.813C160.829 253.413 161.029 252.113 161.429 250.513L173.529 210.313C173.829 209.613 174.329 209.213 175.129 209.213H181.229C182.129 209.213 182.629 209.813 182.329 210.713L170.129 251.913H183.729L184.229 229.113C184.329 228.313 184.829 227.813 185.629 227.813H191.029C191.829 227.813 192.329 228.313 192.329 229.213V251.913H196.529Z" fill="white"/>
</svg>
