<svg width="24" height="16" viewBox="0 0 24 16" fill="none" xmlns="http://www.w3.org/2000/svg">
<rect width="24" height="16" rx="8" fill="white"/>
<path fillRule="evenodd" clip-rule="evenodd" d="M9.30308 4.19464C9.52719 4.4319 9.50173 4.79294 9.24621 5.00104L6.27342 7.42216H17.734L14.7612 5.00104C14.5057 4.79294 14.4802 4.4319 14.7043 4.19464C14.9284 3.95738 15.3172 3.93374 15.5727 4.14183L19.7172 7.51717C19.8055 7.57162 19.8778 7.64669 19.9261 7.73499C19.9742 7.81763 20.0001 7.91094 20 8.00695C19.9998 8.17168 19.9231 8.32833 19.7895 8.43672L15.5719 11.8589C15.3159 12.0665 14.9272 12.0422 14.7035 11.8046C14.4799 11.5669 14.5061 11.2059 14.762 10.9983L17.7609 8.56501H6.24646L9.24536 10.9983C9.50128 11.2059 9.52747 11.5669 9.30384 11.8046C9.08021 12.0422 8.69145 12.0665 8.43552 11.8589L4.21785 8.43672C4.16021 8.38995 4.11317 8.33421 4.07829 8.27271C4.02843 8.19017 4 8.09496 4 7.99358C4 7.77647 4.1304 7.58763 4.32245 7.49093L8.43466 4.14183C8.69017 3.93374 9.07898 3.95738 9.30308 4.19464Z" fill="#364B68"/>
</svg>
